<?xml version="1.0" encoding="utf-8"?>
<!-- Generator: Adobe Illustrator 22.0.0, SVG Export Plug-In . SVG Version: 6.00 Build 0)  -->
<svg version="1.1" id="Capa_1" xmlns="http://www.w3.org/2000/svg" xmlns:xlink="http://www.w3.org/1999/xlink" x="0px" y="0px"
	 viewBox="0 0 100 100" style="enable-background:new 0 0 100 100;" xml:space="preserve">
<style type="text/css">
	.st0{fill:#1D1D1B;}
	.st1{fill:#FFFFFF;}
</style>
<g>
	<path class="st0" d="M18.5,89l-7.4-7.4c-0.4-0.4-0.4-1.1,0-1.5l69.7-69.7c0.4-0.4,1.1-0.4,1.5,0l7.4,7.4c0.4,0.4,0.4,1.1,0,1.5
		L20,89C19.6,89.4,19,89.4,18.5,89z"/>
	<g>
		<path class="st0" d="M82.3,89l7.4-7.4c0.4-0.4,0.4-1.1,0-1.5L20,10.5c-0.4-0.4-1.1-0.4-1.5,0l-7.4,7.4c-0.4,0.4-0.4,1.1,0,1.5
			L80.9,89C81.3,89.4,81.9,89.4,82.3,89z"/>
	</g>
</g>
</svg>
