<?xml version="1.0" encoding="utf-8"?>
<!-- Generator: Adobe Illustrator 22.0.0, SVG Export Plug-In . SVG Version: 6.00 Build 0)  -->
<svg version="1.1" id="Capa_1" xmlns="http://www.w3.org/2000/svg" xmlns:xlink="http://www.w3.org/1999/xlink" x="0px" y="0px"
	 viewBox="0 0 100 100" style="enable-background:new 0 0 100 100;" xml:space="preserve">
<style type="text/css">
	.st0{fill:#1D1D1B;}
	.st1{fill:none;}
</style>
<path class="st1" d="M68.8,17H20.9c-0.5,0-0.9,0.4-0.9,0.9v16.4c0,0.5,0.4,0.9,0.9,0.9h47.9c0.5,0,0.9-0.4,0.9-0.9V17.9
	C69.7,17.4,69.3,17,68.8,17z"/>
<path class="st0" d="M88.3,31.5L63.1,8.7H12.3c-0.5,0-0.9,0.4-0.9,0.9v83.2c0,0.5,0.4,0.9,0.9,0.9h75.5c0.5,0,0.9-0.4,0.9-0.9
	L88.3,31.5z M71.4,59.8l-21,21c-0.5,0.5-1.3,0.5-1.7,0l-21-21c-0.8-0.8-0.2-2.1,0.9-2.1h12.9V24.9c0-0.4,0.4-0.8,0.8-0.8h14.5
	c0.4,0,0.8,0.4,0.8,0.8v32.7h12.9C71.6,57.7,72.1,59,71.4,59.8z"/>
</svg>
